<svg width="24" height="24" viewBox="0 0 24 24" fill="none" xmlns="http://www.w3.org/2000/svg">
<path fill-rule="evenodd" clip-rule="evenodd" d="M14.9601 18.6001C14.8101 18.7501 14.6201 18.8201 14.4301 18.8201C14.2401 18.8201 14.0401 18.7501 13.9001 18.6001C13.6101 18.3101 13.6101 17.8301 13.9001 17.5401L18.6902 12.75H3.49959C3.08959 12.75 2.74959 12.41 2.74959 12C2.74959 11.59 3.08959 11.25 3.49959 11.25H18.6899L13.9001 6.46012C13.6101 6.17012 13.6101 5.69012 13.9001 5.40012C14.1901 5.11012 14.6701 5.11012 14.9601 5.40012L21.0301 11.4701C21.3201 11.7601 21.3201 12.2401 21.0301 12.5301L14.9601 18.6001Z" fill="white"/>
</svg>
