<svg width="25" height="25" viewBox="0 0 25 25" fill="none" xmlns="http://www.w3.org/2000/svg">
<g id="draft/24/action/list">
<path id="Union" fill-rule="evenodd" clip-rule="evenodd" d="M22.5 5.25C22.5 5.66421 22.1642 6 21.75 6L7.25 6C6.83579 6 6.5 5.66421 6.5 5.25C6.5 4.83578 6.83579 4.5 7.25 4.5H21.75C22.1642 4.5 22.5 4.83579 22.5 5.25ZM22.5 12.25C22.5 12.6642 22.1642 13 21.75 13L7.25 13C6.83579 13 6.5 12.6642 6.5 12.25C6.5 11.8358 6.83579 11.5 7.25 11.5L21.75 11.5C22.1642 11.5 22.5 11.8358 22.5 12.25ZM21.75 20C22.1642 20 22.5 19.6642 22.5 19.25C22.5 18.8358 22.1642 18.5 21.75 18.5L7.25 18.5C6.83579 18.5 6.5 18.8358 6.5 19.25C6.5 19.6642 6.83579 20 7.25 20L21.75 20Z" fill="#1F8A70"/>
<circle id="Ellipse 14" cx="3.5" cy="5.5" r="1" fill="#1F8A70"/>
<circle id="Ellipse 15" cx="3.5" cy="12.5" r="1" fill="#1F8A70"/>
<circle id="Ellipse 16" cx="3.5" cy="19.5" r="1" fill="#1F8A70"/>
</g>
</svg>
