<svg width="100" height="100" viewBox="0 0 100 100" fill="none" xmlns="http://www.w3.org/2000/svg">
<g clip-path="url(#clip0_503_628)">
<path d="M75 -2H92C97.5228 -2 102 2.47715 102 8H98C98 4.68629 95.3137 2 92 2H75V-2ZM100 25H75H100ZM75 25V0V25ZM92 -2C97.5228 -2 102 2.47715 102 8V25H98V8C98 4.68629 95.3137 2 92 2V-2Z" fill="black" mask="url(#path-2-inside-1_503_628)"/>
<path d="M-2 8C-2 2.47715 2.47715 -2 8 -2H25V2H8C4.68629 2 2 4.68629 2 8H-2ZM25 25H0H25ZM-2 25V8C-2 2.47715 2.47715 -2 8 -2V2C4.68629 2 2 4.68629 2 8V25H-2ZM25 0V25V0Z" fill="black" mask="url(#path-4-inside-2_503_628)"/>
<path d="M0 75H25H0ZM25 102H8C2.47715 102 -2 97.5228 -2 92H2C2 95.3137 4.68629 98 8 98H25V102ZM8 102C2.47715 102 -2 97.5228 -2 92V75H2V92C2 95.3137 4.68629 98 8 98V102ZM25 75V100V75Z" fill="black" mask="url(#path-6-inside-3_503_628)"/>
<g filter="url(#filter0_d_503_628)">
<path d="M75 75H100H75ZM102 92C102 97.5228 97.5228 102 92 102H75V98H92C95.3137 98 98 95.3137 98 92H102ZM75 100V75V100ZM102 75V92C102 97.5228 97.5228 102 92 102V98C95.3137 98 98 95.3137 98 92V75H102Z" fill="black" mask="url(#path-8-inside-4_503_628)"/>
</g>
</g>
<defs>
<filter id="filter0_d_503_628" x="71" y="75" width="33" height="33" filterUnits="userSpaceOnUse" color-interpolation-filters="sRGB">
<feFlood flood-opacity="0" result="BackgroundImageFix"/>
<feColorMatrix in="SourceAlpha" type="matrix" values="0 0 0 0 0 0 0 0 0 0 0 0 0 0 0 0 0 0 127 0" result="hardAlpha"/>
<feOffset dy="4"/>
<feGaussianBlur stdDeviation="2"/>
<feComposite in2="hardAlpha" operator="out"/>
<feColorMatrix type="matrix" values="0 0 0 0 0 0 0 0 0 0 0 0 0 0 0 0 0 0 0.25 0"/>
<feBlend mode="normal" in2="BackgroundImageFix" result="effect1_dropShadow_503_628"/>
<feBlend mode="normal" in="SourceGraphic" in2="effect1_dropShadow_503_628" result="shape"/>
</filter>
<clipPath id="clip0_503_628">
<path d="M0 8C0 3.58172 3.58172 0 8 0H92C96.4183 0 100 3.58172 100 8V92C100 96.4183 96.4183 100 92 100H8C3.58172 100 0 96.4183 0 92V8Z" fill="white"/>
</clipPath>
</defs>
</svg>
