<svg width="24" height="24" viewBox="0 0 24 24" fill="none" xmlns="http://www.w3.org/2000/svg">
<path d="M8.25002 18.7501C8.25002 19.1479 8.09198 19.5295 7.81068 19.8108C7.52937 20.0921 7.14784 20.2501 6.75002 20.2501C6.35219 20.2501 5.97066 20.0921 5.68936 19.8108C5.40805 19.5295 5.25002 19.1479 5.25002 18.7501M8.25002 18.7501C8.25002 18.3523 8.09198 17.9708 7.81068 17.6895C7.52937 17.4081 7.14784 17.2501 6.75002 17.2501C6.35219 17.2501 5.97066 17.4081 5.68936 17.6895C5.40805 17.9708 5.25002 18.3523 5.25002 18.7501M8.25002 18.7501H14.25M5.25002 18.7501H3.37502C3.07665 18.7501 2.7905 18.6316 2.57952 18.4206C2.36855 18.2096 2.25002 17.9235 2.25002 17.6251V14.2501M14.25 18.7501H16.5M14.25 18.7501V14.2501M2.25002 14.2501V6.61511C2.24843 6.34128 2.34848 6.0766 2.53081 5.87229C2.71313 5.66798 2.96477 5.53857 3.23702 5.50911C6.57006 5.16314 9.92997 5.16314 13.263 5.50911C13.828 5.56711 14.25 6.04711 14.25 6.61511V7.57311M2.25002 14.2501H14.25M19.5 18.7501C19.5 19.1479 19.342 19.5295 19.0607 19.8108C18.7794 20.0921 18.3978 20.2501 18 20.2501C17.6022 20.2501 17.2207 20.0921 16.9394 19.8108C16.6581 19.5295 16.5 19.1479 16.5 18.7501M19.5 18.7501C19.5 18.3523 19.342 17.9708 19.0607 17.6895C18.7794 17.4081 18.3978 17.2501 18 17.2501C17.6022 17.2501 17.2207 17.4081 16.9394 17.6895C16.6581 17.9708 16.5 18.3523 16.5 18.7501M19.5 18.7501H20.625C21.246 18.7501 21.754 18.2461 21.715 17.6261C21.5141 14.3238 20.4019 11.1417 18.502 8.43311C18.3211 8.17939 18.0848 7.97013 17.8111 7.82114C17.5373 7.67216 17.2333 7.58734 16.922 7.57311H14.25M14.25 7.57311V14.2501" stroke="#1F8A70" stroke-width="1.5" stroke-linecap="round" stroke-linejoin="round"/>
</svg>
