<svg width="41" height="41" viewBox="0 0 41 41" fill="none" xmlns="http://www.w3.org/2000/svg">
<path d="M20.5 3.70947C11.3 3.70947 3.83334 11.1761 3.83334 20.3761C3.83334 29.5761 11.3 37.0428 20.5 37.0428C29.7 37.0428 37.1667 29.5761 37.1667 20.3761C37.1667 11.1761 29.7 3.70947 20.5 3.70947ZM19.85 25.1095C19.85 26.9261 18.4333 28.3428 16.6167 28.3428H14.15C12.3667 28.3428 10.9167 26.8928 10.9167 25.1095V20.6595C10.9167 15.5261 12.0333 14.3761 15.0167 12.6095C15.2167 12.4928 15.4333 12.4428 15.65 12.4428C16.0833 12.4428 16.5 12.6595 16.7333 13.0595C17.0833 13.6595 16.8833 14.4261 16.3 14.7761C14.2833 15.9428 13.5833 16.3761 13.45 19.3928H16.6333C18.45 19.3928 19.8667 20.8095 19.8667 22.6261V25.1095H19.85ZM30.0833 25.1095C30.0833 26.9261 28.6667 28.3428 26.85 28.3428H24.3667C22.5833 28.3428 21.1333 26.8928 21.1333 25.1095V20.6595C21.1333 15.5261 22.25 14.3761 25.2333 12.6095C25.4333 12.4928 25.65 12.4428 25.8667 12.4428C26.3 12.4428 26.7167 12.6595 26.95 13.0595C27.3 13.6595 27.1 14.4261 26.5167 14.7761C24.5 15.9761 23.8 16.4095 23.6667 19.4261H26.85C28.6667 19.4261 30.0833 20.8428 30.0833 22.6595V25.1095Z" fill="#04856B"/>
</svg>
