<svg width="25" height="25" viewBox="0 0 25 25" fill="none" xmlns="http://www.w3.org/2000/svg">
<path d="M20.47 10.6484H4.47V18.6484C4.47 21.6484 5.47 22.6484 8.47 22.6484H16.47C19.47 22.6484 20.47 21.6484 20.47 18.6484V10.6484Z" stroke="white" stroke-width="1.5" stroke-miterlimit="10" stroke-linecap="round" stroke-linejoin="round"/>
<path d="M22 7.64844V8.64844C22 9.74844 21.47 10.6484 20 10.6484H5C3.47 10.6484 3 9.74844 3 8.64844V7.64844C3 6.54844 3.47 5.64844 5 5.64844H20C21.47 5.64844 22 6.54844 22 7.64844Z" stroke="white" stroke-width="1.5" stroke-miterlimit="10" stroke-linecap="round" stroke-linejoin="round"/>
<path d="M12.14 5.64984H6.62C6.28 5.27984 6.29 4.70984 6.65 4.34984L8.07 2.92984C8.44 2.55984 9.05 2.55984 9.42 2.92984L12.14 5.64984Z" stroke="white" stroke-width="1.5" stroke-miterlimit="10" stroke-linecap="round" stroke-linejoin="round"/>
<path d="M18.37 5.64984H12.85L15.57 2.92984C15.94 2.55984 16.55 2.55984 16.92 2.92984L18.34 4.34984C18.7 4.70984 18.71 5.27984 18.37 5.64984Z" stroke="white" stroke-width="1.5" stroke-miterlimit="10" stroke-linecap="round" stroke-linejoin="round"/>
<path d="M9.44 10.6484V15.7884C9.44 16.5884 10.32 17.0584 10.99 16.6284L11.93 16.0084C12.27 15.7884 12.7 15.7884 13.03 16.0084L13.92 16.6084C14.58 17.0484 15.47 16.5784 15.47 15.7784V10.6484H9.44Z" stroke="white" stroke-width="1.5" stroke-miterlimit="10" stroke-linecap="round" stroke-linejoin="round"/>
</svg>
