<svg width="25" height="25" viewBox="0 0 25 25" fill="none" xmlns="http://www.w3.org/2000/svg">
<path d="M17.5 19.0782H13.5L9.04999 22.0381C8.38999 22.4781 7.5 22.0082 7.5 21.2082V19.0782C4.5 19.0782 2.5 17.0782 2.5 14.0782V8.07812C2.5 5.07812 4.5 3.07812 7.5 3.07812H17.5C20.5 3.07812 22.5 5.07812 22.5 8.07812V14.0782C22.5 17.0782 20.5 19.0782 17.5 19.0782Z" stroke="white" stroke-width="1.5" stroke-miterlimit="10" stroke-linecap="round" stroke-linejoin="round"/>
<path d="M12.5 12.0078V11.7979C12.5 11.1179 12.92 10.7578 13.34 10.4678C13.75 10.1878 14.16 9.82785 14.16 9.16785C14.16 8.24785 13.42 7.50781 12.5 7.50781C11.58 7.50781 10.84 8.24785 10.84 9.16785" stroke="white" stroke-width="1.5" stroke-linecap="round" stroke-linejoin="round"/>
<path d="M12.4955 14.3984H12.5045" stroke="white" stroke-width="1.5" stroke-linecap="round" stroke-linejoin="round"/>
</svg>
