<svg width="174" height="85" viewBox="0 0 174 85" fill="none" xmlns="http://www.w3.org/2000/svg">
<rect x="6.5" y="6.82812" width="161" height="72" rx="36" fill="#1F8A70"/>
<path d="M54.548 56.2121C52.7987 56.2121 51.1667 55.9028 49.652 55.2841C48.1373 54.6655 46.8147 53.8015 45.684 52.6921C44.5533 51.5828 43.668 50.2815 43.028 48.7881C42.4093 47.2735 42.1 45.6415 42.1 43.8921C42.1 42.1215 42.4093 40.4895 43.028 38.9961C43.6467 37.5028 44.5213 36.2015 45.652 35.0921C46.7827 33.9828 48.1053 33.1295 49.62 32.5321C51.1347 31.9135 52.7773 31.6041 54.548 31.6041C56.3187 31.6041 57.9613 31.9135 59.476 32.5321C60.9907 33.1508 62.3133 34.0148 63.444 35.1241C64.5747 36.2121 65.4493 37.5028 66.068 38.9961C66.708 40.4895 67.028 42.1215 67.028 43.8921C67.028 45.6415 66.708 47.2735 66.068 48.7881C65.428 50.2815 64.5427 51.5828 63.412 52.6921C62.2813 53.8015 60.9587 54.6655 59.444 55.2841C57.9507 55.9028 56.3187 56.2121 54.548 56.2121ZM54.548 52.2441C55.7213 52.2441 56.7987 52.0415 57.78 51.6361C58.7613 51.2095 59.6147 50.6228 60.34 49.8761C61.0867 49.1295 61.652 48.2441 62.036 47.2201C62.4413 46.1961 62.644 45.0868 62.644 43.8921C62.644 42.6975 62.4413 41.5988 62.036 40.5961C61.652 39.5721 61.0867 38.6868 60.34 37.9401C59.6147 37.1721 58.7613 36.5855 57.78 36.1801C56.7987 35.7748 55.7213 35.5721 54.548 35.5721C53.396 35.5721 52.3293 35.7748 51.348 36.1801C50.3667 36.5855 49.5027 37.1721 48.756 37.9401C48.0307 38.6868 47.4653 39.5721 47.06 40.5961C46.6547 41.5988 46.452 42.6975 46.452 43.8921C46.452 45.0868 46.6547 46.1961 47.06 47.2201C47.4653 48.2441 48.0307 49.1295 48.756 49.8761C49.5027 50.6228 50.3667 51.2095 51.348 51.6361C52.3293 52.0415 53.396 52.2441 54.548 52.2441ZM60.052 58.7081L52.628 46.2921H57.172L64.692 58.7081H60.052ZM80.0818 56.2121C78.2471 56.2121 76.6151 55.8281 75.1858 55.0601C73.7778 54.2921 72.6684 53.2361 71.8578 51.8921C71.0471 50.5481 70.6418 49.0228 70.6418 47.3161V31.9881H74.9938V47.0921C74.9938 48.0735 75.2071 48.9588 75.6338 49.7481C76.0818 50.5375 76.6898 51.1561 77.4578 51.6041C78.2258 52.0308 79.1004 52.2441 80.0818 52.2441C81.0844 52.2441 81.9591 52.0308 82.7058 51.6041C83.4738 51.1561 84.0711 50.5375 84.4978 49.7481C84.9458 48.9588 85.1698 48.0735 85.1698 47.0921V31.9881H89.5218V47.3161C89.5218 49.0228 89.1164 50.5481 88.3058 51.8921C87.4951 53.2361 86.3751 54.2921 84.9458 55.0601C83.5378 55.8281 81.9164 56.2121 80.0818 56.2121ZM91.2895 55.8281L99.5135 31.9881H105.146L113.37 55.8281H108.634L106.938 50.7081H97.7215L95.9935 55.8281H91.2895ZM98.9695 46.8681H105.69L101.722 34.9961H102.938L98.9695 46.8681ZM119.853 55.8281V45.2681L111.821 31.9881H116.781L122.925 42.3561H121.165L127.277 31.9881H132.237L124.237 45.2361V55.8281H119.853Z" fill="white"/>
<rect x="6.5" y="6.82812" width="161" height="72" rx="36" stroke="#FFC107" stroke-width="12"/>
</svg>
