<svg width="568" height="568" viewBox="0 0 569 568" fill="none" xmlns="http://www.w3.org/2000/svg">
    <path
        d="M283.297 568C439.757 568 566.594 440.849 566.594 284C566.594 127.151 439.757 0 283.297 0C126.836 0 0 127.151 0 284C0 440.849 126.836 568 283.297 568Z"
        fill="#FFC107" />
    <path
        d="M283.297 545.388C427.301 545.388 544.04 428.359 544.04 283.998C544.04 139.636 427.301 22.6079 283.297 22.6079C139.293 22.6079 22.5542 139.636 22.5542 283.998C22.5542 428.359 139.293 545.388 283.297 545.388Z"
        fill="#FFEDCC" />
    <path
        d="M292.893 13.6837C292.893 17.5738 289.75 20.733 285.862 20.733C281.981 20.733 278.83 17.5822 278.83 13.6837C278.83 9.78507 281.973 6.63428 285.862 6.63428C289.742 6.64268 292.893 9.79347 292.893 13.6837Z"
        fill="#00A55D" />
    <path
        d="M292.893 559.453C292.893 563.343 289.75 566.503 285.862 566.503C281.981 566.503 278.83 563.352 278.83 559.453C278.83 555.563 281.973 552.404 285.862 552.404C289.742 552.404 292.893 555.563 292.893 559.453Z"
        fill="#00A55D" />
    <path
        d="M563.036 291.55C565.783 288.797 565.783 284.334 563.036 281.581C560.29 278.828 555.838 278.828 553.092 281.581C550.346 284.334 550.346 288.797 553.092 291.55C555.838 294.303 560.29 294.303 563.036 291.55Z"
        fill="#00A55D" />
    <path
        d="M20.4562 288.344C21.4395 284.577 19.191 280.725 15.434 279.739C11.677 278.753 7.83413 281.007 6.8508 284.774C5.86746 288.54 8.11599 292.393 11.873 293.378C15.63 294.364 19.4728 292.11 20.4562 288.344Z"
        fill="#00A55D" />
    <path
        d="M218.065 29.5106C221.664 28.0459 223.397 23.9341 221.936 20.3266C220.475 16.7191 216.373 14.982 212.775 16.4467C209.176 17.9113 207.443 22.0231 208.904 25.6306C210.365 29.2381 214.467 30.9752 218.065 29.5106Z"
        fill="#00A55D" />
    <path
        d="M359.48 556.426C362.946 554.67 364.335 550.429 362.582 546.955C360.83 543.48 356.6 542.088 353.134 543.844C349.668 545.601 348.279 549.842 350.032 553.316C351.784 556.79 356.014 558.183 359.48 556.426Z"
        fill="#00A55D" />
    <path
        d="M552.02 222.238C555.475 220.461 556.838 216.212 555.065 212.748C553.292 209.284 549.053 207.917 545.598 209.695C542.143 211.472 540.779 215.722 542.553 219.185C544.326 222.649 548.564 224.016 552.02 222.238Z"
        fill="#00A55D" />
    <path
        d="M25.9572 363.573C29.4649 361.901 30.9569 357.696 29.2896 354.18C27.6224 350.663 23.4273 349.167 19.9196 350.839C16.4119 352.51 14.9199 356.716 16.5872 360.232C18.2544 363.749 22.4495 365.244 25.9572 363.573Z"
        fill="#00A55D" />
    <path
        d="M155.842 46.7212C157.786 50.0905 156.63 54.4008 153.269 56.3501C149.908 58.2994 145.608 57.1399 143.664 53.7706C141.719 50.4014 142.876 46.0911 146.237 44.1418C149.606 42.1925 153.906 43.352 155.842 46.7212Z"
        fill="#00A55D" />
    <path
        d="M428.05 519.367C429.995 522.736 428.838 527.046 425.477 528.995C422.116 530.945 417.817 529.785 415.872 526.416C413.928 523.047 415.085 518.737 418.445 516.787C421.815 514.846 426.114 515.997 428.05 519.367Z"
        fill="#00A55D" />
    <path
        d="M525.114 156.224C521.753 158.174 517.454 157.014 515.509 153.645C513.565 150.276 514.721 145.965 518.082 144.016C521.443 142.067 525.743 143.226 527.687 146.595C529.623 149.973 528.475 154.283 525.114 156.224Z"
        fill="#00A55D" />
    <path
        d="M53.6404 429.113C50.2795 431.062 45.9799 429.902 44.0354 426.533C42.091 423.164 43.2476 418.854 46.6085 416.904C49.9694 414.955 54.269 416.115 56.2135 419.484C58.1496 422.861 57.0013 427.172 53.6404 429.113Z"
        fill="#00A55D" />
    <path
        d="M98.3551 88.6353C101.104 91.3912 101.104 95.8527 98.3551 98.6002C95.606 101.356 91.1555 101.356 88.4148 98.6002C85.6658 95.8443 85.6658 91.3828 88.4148 88.6353C91.1555 85.8794 95.606 85.8794 98.3551 88.6353Z"
        fill="#00A55D" />
    <path
        d="M478.339 486.57C482.222 486.57 485.37 483.414 485.37 479.521C485.37 475.628 482.222 472.472 478.339 472.472C474.455 472.472 471.307 475.628 471.307 479.521C471.307 483.414 474.455 486.57 478.339 486.57Z"
        fill="#00A55D" />
    <path
        d="M483.308 98.597C480.559 101.353 476.109 101.353 473.368 98.597C470.619 95.8411 470.619 91.3796 473.368 88.6321C476.117 85.8846 480.568 85.8762 483.308 88.6321C486.057 91.3796 486.057 95.8411 483.308 98.597Z"
        fill="#00A55D" />
    <path
        d="M93.385 486.57C97.2686 486.57 100.417 483.414 100.417 479.521C100.417 475.628 97.2686 472.472 93.385 472.472C89.5013 472.472 86.353 475.628 86.353 479.521C86.353 483.414 89.5013 486.57 93.385 486.57Z"
        fill="#00A55D" />
    <path
        d="M53.6404 144.025C57.0013 145.974 58.158 150.285 56.2135 153.654C54.269 157.023 49.9694 158.183 46.6085 156.233C43.2476 154.284 42.091 149.974 44.0354 146.604C45.9799 143.235 50.2795 142.076 53.6404 144.025Z"
        fill="#00A55D" />
    <path
        d="M525.114 416.91C528.475 418.859 529.632 423.169 527.687 426.539C525.743 429.908 521.443 431.067 518.082 429.118C514.721 427.169 513.565 422.858 515.509 419.489C517.454 416.112 521.753 414.96 525.114 416.91Z"
        fill="#00A55D" />
    <path
        d="M428.05 53.7706C426.106 57.1399 421.806 58.2994 418.445 56.3501C415.085 54.4008 413.928 50.0905 415.872 46.7212C417.817 43.352 422.116 42.1925 425.477 44.1418C428.838 46.0911 429.995 50.4014 428.05 53.7706Z"
        fill="#00A55D" />
    <path
        d="M155.842 526.416C153.897 529.786 149.598 530.945 146.237 528.996C142.876 527.046 141.719 522.736 143.664 519.367C145.608 515.998 149.908 514.838 153.269 516.787C156.638 518.737 157.786 523.047 155.842 526.416Z"
        fill="#00A55D" />
    <path
        d="M29.2541 219.028C30.9567 215.529 29.5073 211.309 26.0167 209.602C22.5261 207.895 18.3161 209.348 16.6136 212.847C14.911 216.347 16.3605 220.567 19.8511 222.274C23.3417 223.981 27.5516 222.528 29.2541 219.028Z"
        fill="#00A55D" />
    <path
        d="M555.049 360.376C556.822 356.912 555.459 352.663 552.004 350.885C548.548 349.107 544.31 350.474 542.536 353.938C540.763 357.402 542.127 361.651 545.582 363.429C549.037 365.206 553.276 363.839 555.049 360.376Z"
        fill="#00A55D" />
    <path
        d="M362.601 26.1093C364.331 22.6237 362.915 18.392 359.438 16.6575C355.961 14.9231 351.739 16.3427 350.009 19.8283C348.279 23.314 349.695 27.5457 353.172 29.2801C356.649 31.0146 360.87 29.595 362.601 26.1093Z"
        fill="#00A55D" />
    <path
        d="M221.957 552.808C223.418 549.2 221.685 545.088 218.086 543.624C214.488 542.159 210.386 543.896 208.925 547.504C207.464 551.111 209.197 555.223 212.796 556.688C216.394 558.152 220.496 556.415 221.957 552.808Z"
        fill="#00A55D" />
    <path
        d="M286.563 17.3397C289.998 15.5242 291.315 11.2606 289.504 7.81666C287.693 4.37268 283.44 3.05247 280.005 4.8679C276.569 6.68333 275.252 10.9469 277.063 14.3909C278.874 17.8349 283.127 19.1551 286.563 17.3397Z"
        fill="#66BA7A" fill-opacity="0.1" />
    <path
        d="M290.242 558.114C290.93 554.283 288.39 550.617 284.568 549.927C280.745 549.236 277.089 551.783 276.4 555.615C275.712 559.446 278.252 563.112 282.074 563.803C285.896 564.493 289.553 561.946 290.242 558.114Z"
        fill="#66BA7A" fill-opacity="0.1" />
    <path
        d="M555.506 291.048C551.625 291.048 548.474 287.897 548.474 283.999C548.474 280.109 551.617 276.949 555.506 276.949C559.387 276.949 562.538 280.1 562.538 283.999C562.538 287.889 559.387 291.048 555.506 291.048Z"
        fill="#66BA7A" fill-opacity="0.1" />
    <path
        d="M18.0543 285.037C18.6163 281.185 15.9566 277.605 12.1137 277.041C8.2709 276.478 4.70009 279.144 4.13813 282.997C3.57616 286.849 6.23586 290.429 10.0787 290.992C13.9216 291.556 17.4923 288.889 18.0543 285.037Z"
        fill="#66BA7A" fill-opacity="0.1" />
    <path
        d="M215.669 26.8836C219.227 25.3216 220.847 21.1644 219.289 17.5982C217.731 14.0319 213.584 12.4072 210.027 13.9692C206.469 15.5311 204.849 19.6884 206.407 23.2546C207.965 26.8208 212.112 28.4456 215.669 26.8836Z"
        fill="#66BA7A" fill-opacity="0.1" />
    <path
        d="M355.921 554.292C359.612 553.079 361.622 549.097 360.412 545.397C359.202 541.698 355.229 539.682 351.539 540.895C347.849 542.109 345.838 546.091 347.049 549.79C348.259 553.49 352.231 555.505 355.921 554.292Z"
        fill="#66BA7A" fill-opacity="0.1" />
    <path
        d="M548.752 219.956C552.382 218.573 554.207 214.501 552.827 210.862C551.447 207.222 547.385 205.393 543.755 206.776C540.125 208.16 538.3 212.231 539.68 215.871C541.06 219.51 545.122 221.339 548.752 219.956Z"
        fill="#66BA7A" fill-opacity="0.1" />
    <path
        d="M22.7645 361.259C26.4154 359.932 28.3019 355.889 26.978 352.229C25.6541 348.569 21.6211 346.678 17.9701 348.005C14.3191 349.332 12.4326 353.375 13.7566 357.035C15.0805 360.695 19.1135 362.586 22.7645 361.259Z"
        fill="#66BA7A" fill-opacity="0.1" />
    <path
        d="M153.286 44.155C155.231 47.5243 154.074 51.8345 150.713 53.7838C147.352 55.7331 143.053 54.5736 141.108 51.2044C139.164 47.8351 140.32 43.5248 143.681 41.5756C147.042 39.6347 151.342 40.7858 153.286 44.155Z"
        fill="#66BA7A" fill-opacity="0.1" />
    <path
        d="M425.487 516.794C427.431 520.163 426.275 524.473 422.914 526.422C419.553 528.372 415.253 527.212 413.309 523.843C411.364 520.474 412.521 516.163 415.882 514.214C419.251 512.273 423.551 513.424 425.487 516.794Z"
        fill="#66BA7A" fill-opacity="0.1" />
    <path
        d="M522.551 153.667C519.19 155.616 514.891 154.457 512.946 151.088C511.002 147.719 512.158 143.408 515.519 141.459C518.88 139.51 523.18 140.669 525.124 144.038C527.069 147.408 525.912 151.718 522.551 153.667Z"
        fill="#66BA7A" fill-opacity="0.1" />
    <path
        d="M51.076 426.536C47.7151 428.485 43.4155 427.326 41.471 423.956C39.5265 420.587 40.6831 416.277 44.044 414.328C47.405 412.378 51.7046 413.538 53.649 416.907C55.5935 420.285 54.4369 424.595 51.076 426.536Z"
        fill="#66BA7A" fill-opacity="0.1" />
    <path
        d="M90.8205 98.0939C94.7041 98.0939 97.8524 94.9378 97.8524 91.0445C97.8524 87.1512 94.7041 83.9951 90.8205 83.9951C86.9369 83.9951 83.7886 87.1512 83.7886 91.0445C83.7886 94.9378 86.9369 98.0939 90.8205 98.0939Z"
        fill="#66BA7A" fill-opacity="0.1" />
    <path
        d="M475.774 484.004C479.658 484.004 482.806 480.848 482.806 476.955C482.806 473.062 479.658 469.906 475.774 469.906C471.89 469.906 468.742 473.062 468.742 476.955C468.742 480.848 471.89 484.004 475.774 484.004Z"
        fill="#66BA7A" fill-opacity="0.1" />
    <path
        d="M475.774 98.0939C479.658 98.0939 482.806 94.9378 482.806 91.0445C482.806 87.1512 479.658 83.9951 475.774 83.9951C471.89 83.9951 468.742 87.1512 468.742 91.0445C468.742 94.9378 471.89 98.0939 475.774 98.0939Z"
        fill="#66BA7A" fill-opacity="0.1" />
    <path
        d="M90.8205 484.004C94.7041 484.004 97.8524 480.848 97.8524 476.955C97.8524 473.062 94.7041 469.906 90.8205 469.906C86.9369 469.906 83.7886 473.062 83.7886 476.955C83.7886 480.848 86.9369 484.004 90.8205 484.004Z"
        fill="#66BA7A" fill-opacity="0.1" />
    <path
        d="M51.076 141.459C54.4369 143.408 55.5935 147.719 53.649 151.088C51.7046 154.457 47.405 155.616 44.044 153.667C40.6831 151.718 39.5265 147.408 41.471 144.038C43.4155 140.669 47.7151 139.51 51.076 141.459Z"
        fill="#66BA7A" fill-opacity="0.1" />
    <path
        d="M522.551 414.338C525.912 416.288 527.069 420.598 525.124 423.967C523.18 427.336 518.88 428.496 515.519 426.547C512.158 424.597 511.002 420.287 512.946 416.918C514.891 413.549 519.19 412.389 522.551 414.338Z"
        fill="#66BA7A" fill-opacity="0.1" />
    <path
        d="M425.487 51.2047C423.542 54.5739 419.243 55.7334 415.882 53.7841C412.521 51.8349 411.364 47.5246 413.309 44.1553C415.253 40.7861 419.553 39.6266 422.914 41.5759C426.283 43.5252 427.431 47.8354 425.487 51.2047Z"
        fill="#66BA7A" fill-opacity="0.1" />
    <path
        d="M153.286 523.847C151.342 527.216 147.042 528.375 143.681 526.426C140.32 524.477 139.164 520.167 141.108 516.797C143.053 513.428 147.352 512.269 150.713 514.218C154.074 516.167 155.222 520.477 153.286 523.847Z"
        fill="#66BA7A" fill-opacity="0.1" />
    <path
        d="M26.9899 215.734C28.2932 212.066 26.3841 208.034 22.7257 206.727C19.0674 205.421 15.0451 207.335 13.7417 211.002C12.4384 214.67 14.3475 218.702 18.0059 220.008C21.6643 221.315 25.6866 219.401 26.9899 215.734Z"
        fill="#66BA7A" fill-opacity="0.1" />
    <path
        d="M552.823 357.043C554.148 353.384 552.262 349.34 548.612 348.012C544.961 346.684 540.928 348.575 539.603 352.234C538.278 355.894 540.164 359.937 543.815 361.265C547.465 362.593 551.498 360.703 552.823 357.043Z"
        fill="#66BA7A" fill-opacity="0.1" />
    <path
        d="M360.417 22.6504C361.636 18.9541 359.635 14.967 355.948 13.7449C352.261 12.5228 348.284 14.5285 347.065 18.2248C345.846 21.9211 347.846 25.9082 351.534 27.1303C355.221 28.3524 359.198 26.3467 360.417 22.6504Z"
        fill="#66BA7A" fill-opacity="0.1" />
    <path
        d="M219.258 550.416C220.831 546.857 219.229 542.692 215.678 541.115C212.128 539.537 207.974 541.144 206.401 544.703C204.827 548.262 206.429 552.426 209.98 554.004C213.53 555.582 217.684 553.975 219.258 550.416Z"
        fill="#66BA7A" fill-opacity="0.1" />
</svg>