<svg width="24" height="24" viewBox="0 0 24 24" fill="none" xmlns="http://www.w3.org/2000/svg">
<path d="M18.14 21.6202C17.26 21.8802 16.22 22.0002 15 22.0002H8.99999C7.77999 22.0002 6.73999 21.8802 5.85999 21.6202C6.07999 19.0202 8.74999 16.9702 12 16.9702C15.25 16.9702 17.92 19.0202 18.14 21.6202Z" stroke="#1F8A70" stroke-width="1.5" stroke-linecap="round" stroke-linejoin="round"/>
<path d="M15 2H9C4 2 2 4 2 9V15C2 18.78 3.14 20.85 5.86 21.62C6.08 19.02 8.75 16.97 12 16.97C15.25 16.97 17.92 19.02 18.14 21.62C20.86 20.85 22 18.78 22 15V9C22 4 20 2 15 2ZM12 14.17C10.02 14.17 8.42 12.56 8.42 10.58C8.42 8.6 10.02 7 12 7C13.98 7 15.58 8.6 15.58 10.58C15.58 12.56 13.98 14.17 12 14.17Z" stroke="#1F8A70" stroke-width="1.5" stroke-linecap="round" stroke-linejoin="round"/>
<path d="M15.58 10.58C15.58 12.56 13.98 14.17 12 14.17C10.02 14.17 8.41998 12.56 8.41998 10.58C8.41998 8.6 10.02 7 12 7C13.98 7 15.58 8.6 15.58 10.58Z" stroke="#1F8A70" stroke-width="1.5" stroke-linecap="round" stroke-linejoin="round"/>
</svg>
